<svg width="21" height="20" viewBox="0 0 21 20" xmlns="http://www.w3.org/2000/svg">
<path d="M16.3157 12.3893C15.9056 11.9629 15.411 11.735 14.8868 11.735C14.3669 11.735 13.8681 11.9587 13.4411 12.3851L12.1053 13.7147C11.9954 13.6556 11.8855 13.6007 11.7798 13.5459C11.6276 13.4699 11.4839 13.3981 11.3613 13.3222C10.11 12.5286 8.97287 11.4944 7.88224 10.1563C7.35383 9.48936 6.99873 8.92795 6.74087 8.35809C7.08751 8.04151 7.40878 7.71226 7.7216 7.39567C7.83996 7.27748 7.95833 7.15507 8.07669 7.03688C8.96442 6.15044 8.96442 5.00229 8.07669 4.11585L6.92264 2.96348C6.7916 2.83262 6.65632 2.69755 6.52951 2.56247C6.27587 2.30076 6.00955 2.03061 5.73478 1.77734C5.32473 1.37211 4.83437 1.15683 4.31864 1.15683C3.80291 1.15683 3.30409 1.37211 2.88136 1.77734C2.87713 1.78156 2.87713 1.78156 2.87291 1.78578L1.43563 3.23363C0.894538 3.77394 0.585947 4.43243 0.51831 5.19646C0.416855 6.42903 0.780402 7.57718 1.0594 8.32854C1.74422 10.1732 2.76722 11.8827 4.29327 13.7147C6.14482 15.9224 8.3726 17.6657 10.9174 18.8941C11.8897 19.3542 13.1875 19.8987 14.6374 19.9916C14.7262 19.9958 14.8192 20 14.9038 20C15.8803 20 16.7003 19.6496 17.3429 18.9532C17.3471 18.9447 17.3556 18.9405 17.3598 18.932C17.5796 18.6661 17.8333 18.4255 18.0996 18.168C18.2813 17.995 18.4674 17.8134 18.6491 17.6235C19.0676 17.1887 19.2874 16.6822 19.2874 16.163C19.2874 15.6396 19.0634 15.1372 18.6364 14.7151L16.3157 12.3893ZM17.829 16.8341C17.8248 16.8341 17.8248 16.8384 17.829 16.8341C17.6642 17.0114 17.4951 17.1718 17.3133 17.3491C17.0385 17.6108 16.7595 17.8852 16.4974 18.1933C16.0705 18.6492 15.5674 18.8645 14.908 18.8645C14.8446 18.8645 14.7769 18.8645 14.7135 18.8603C13.458 18.7801 12.2913 18.2904 11.4162 17.8725C9.0236 16.7159 6.92264 15.0739 5.17677 12.9929C3.73527 11.258 2.77145 9.65398 2.13313 7.93176C1.73999 6.88069 1.59627 6.06179 1.65968 5.28932C1.70195 4.79545 1.89218 4.386 2.24304 4.03565L3.68454 2.59624C3.89168 2.40207 4.1115 2.29654 4.32709 2.29654C4.59341 2.29654 4.809 2.45694 4.94427 2.59202C4.9485 2.59624 4.95273 2.60046 4.95696 2.60468C5.21482 2.84529 5.46 3.09433 5.71787 3.36026C5.84891 3.49534 5.98419 3.63042 6.11946 3.76971L7.27351 4.92209C7.7216 5.36953 7.7216 5.7832 7.27351 6.23064C7.15092 6.35305 7.03255 6.47546 6.90996 6.59366C6.55487 6.95667 6.21669 7.29437 5.84891 7.62361C5.84046 7.63206 5.832 7.63628 5.82778 7.64472C5.46423 8.00774 5.53187 8.36231 5.60796 8.60292C5.61219 8.61558 5.61641 8.62824 5.62064 8.64091C5.92078 9.36694 6.3435 10.0508 6.98605 10.8654L6.99028 10.8697C8.15701 12.3049 9.38715 13.4235 10.7441 14.2803C10.9174 14.3901 11.095 14.4787 11.2641 14.5632C11.4162 14.6391 11.56 14.7109 11.6826 14.7869C11.6995 14.7953 11.7164 14.808 11.7333 14.8164C11.877 14.8882 12.0123 14.922 12.1518 14.922C12.5027 14.922 12.7225 14.7025 12.7943 14.6307L14.2401 13.1871C14.3838 13.0436 14.6121 12.8705 14.8784 12.8705C15.1405 12.8705 15.3561 13.0351 15.4871 13.1786C15.4913 13.1829 15.4913 13.1829 15.4956 13.1871L17.8248 15.5129C18.2602 15.9435 18.2602 16.3867 17.829 16.8341Z" />
<path d="M11.3104 4.75747C12.418 4.9432 13.4241 5.46662 14.2273 6.26863C15.0305 7.07065 15.5504 8.07528 15.7406 9.18122C15.7871 9.45981 16.0281 9.65399 16.3029 9.65399C16.3367 9.65399 16.3663 9.64977 16.4001 9.64554C16.7129 9.59489 16.92 9.29941 16.8693 8.98705C16.641 7.64895 16.007 6.42904 15.0389 5.4624C14.0709 4.49576 12.8492 3.86258 11.5091 3.63464C11.1963 3.58399 10.9046 3.79083 10.8497 4.09897C10.7947 4.40711 10.9976 4.70681 11.3104 4.75747Z" />
<path d="M20.4903 8.82242C20.1141 6.61899 19.0742 4.61395 17.4763 3.01836C15.8784 1.42277 13.8704 0.384369 11.6638 0.00868773C11.3552 -0.0461871 11.0635 0.16487 11.0086 0.473013C10.9578 0.785377 11.165 1.07664 11.4778 1.13151C13.4477 1.46498 15.2443 2.39785 16.6731 3.82038C18.1019 5.24712 19.0319 7.0411 19.3659 9.00815C19.4124 9.28675 19.6533 9.48092 19.9281 9.48092C19.9619 9.48092 19.9915 9.4767 20.0253 9.47248C20.3339 9.42605 20.5453 9.13057 20.4903 8.82242Z" />
</svg>
